<svg width="737" height="183" viewBox="0 0 737 183" fill="none" xmlns="http://www.w3.org/2000/svg">
<path d="M66.4 99C66.4 113.4 56.8 121.4 46.8 121.4C35.6 121.4 28.2 114.8 28.2 99.8V37.2H0.400001V105.2C0.400001 133 16 146 37.4 146C51 146 62.8 139.4 68.6 130V144H94V37.2H66.4V99ZM111.978 90.6C111.978 121.8 130.578 146 159.378 146C173.178 146 184.778 139.8 193.178 128.6V144H218.578V0.399989H190.978V51C182.978 40.8 172.178 35.2 159.378 35.2C130.578 35.2 111.978 59 111.978 90.6ZM140.578 90.6C140.578 70.2 151.978 59.8 165.578 59.8C179.178 59.8 190.778 70 190.778 90.2C190.778 110.4 179.378 121.2 165.578 121.2C151.978 121.2 140.578 110.6 140.578 90.6ZM290.592 146C321.592 146 344.792 121.6 344.792 90.6C344.792 59.4 321.592 35.2 290.592 35.2C259.592 35.2 236.392 59.4 236.392 90.6C236.392 121.6 259.592 146 290.592 146ZM290.592 121.4C276.792 121.4 264.992 110.4 264.992 90.6C264.992 70.8 276.792 60 290.592 60C304.392 60 316.192 70.8 316.192 90.6C316.192 110.4 304.392 121.4 290.592 121.4ZM455.022 37.2H427.222L402.822 110.4L376.022 37.2H346.022L388.022 142.8L372.822 182.6H403.022L455.022 37.2ZM495.22 144V0.399989H467.22V144H495.22ZM583.75 144H606.35V76.8C606.35 50.6 589.95 35.2 561.95 35.2C536.15 35.2 518.35 51.2 516.75 75.8H541.75C542.75 63.8 549.95 56.8 561.95 56.8C573.55 56.8 580.35 63.8 580.35 75.8V82.2C573.75 81.4 568.55 81 562.55 81C531.35 81 514.55 92.2 514.55 113C514.55 133 529.35 146 551.55 146C566.15 146 576.75 140.8 583.75 130.8V144ZM540.75 112.2C540.75 102.6 548.55 97.6 564.35 97.6C569.15 97.6 573.75 98 580.35 99V106.6C580.35 119 571.75 126.8 557.55 126.8C547.15 126.8 540.75 121.2 540.75 112.2ZM736.906 90.6C736.906 59 718.306 35.2 689.506 35.2C676.706 35.2 665.906 40.6 658.106 51V0.399989H630.306V144H655.906V128.6C664.106 139.8 675.706 146 689.506 146C718.306 146 736.906 121.8 736.906 90.6ZM708.306 90.6C708.306 110.6 696.906 121.2 683.306 121.2C669.506 121.2 658.306 110.4 658.306 90.2C658.306 70 669.906 59.8 683.306 59.8C696.906 59.8 708.306 70.2 708.306 90.6Z" fill="black"/>
</svg>
